<?xml version="1.0" encoding="utf-8"?>
<!-- Generator: Adobe Illustrator 22.1.0, SVG Export Plug-In . SVG Version: 6.00 Build 0)  -->
<svg version="1.1" id="Layer_1" xmlns="http://www.w3.org/2000/svg" xmlns:xlink="http://www.w3.org/1999/xlink" x="0px" y="0px"
	 viewBox="0 0 19.5 18" style="enable-background:new 0 0 19.5 18;" xml:space="preserve">
<style type="text/css">
	.st0{fill:#A11D21;}
	.st1{fill:#CA2026;}
	.st2{fill:#801517;}
</style>
<g>
	<path class="st0" d="M5.7,8L2.5,9.2c0,0.5,0.1,1,0.3,1.5l3-1.1C5.7,9.1,5.6,8.6,5.7,8"/>
	<path class="st0" d="M19.5,4.6c-0.2-0.4-0.5-0.9-0.8-1.3l-3.1,1.1c0.4,0.4,0.7,0.8,0.9,1.3L19.5,4.6z"/>
	<path class="st1" d="M12.6,3.7c0.6,0.3,1.2,0.7,1.7,1.2l3.1-1.1c-2.9-4-8.5-5-12.5-2.1c-2.6,1.8-4,4.9-3.7,8l3.1-1.2
		c0.2-3.2,3-5.6,6.2-5.4C11.3,3.2,12,3.4,12.6,3.7"/>
	<path class="st1" d="M3,10.6l-3,1.1c0.3,1.1,0.8,2.1,1.4,3.1l3.1-1.1C3.7,12.8,3.2,11.8,3,10.6"/>
	<path class="st1" d="M16,9.4c0,0.7-0.2,1.4-0.5,2c-1.3,2.9-4.8,4.2-7.8,2.8C7,14,6.5,13.6,6,13.1l-3.1,1.2c0.9,1.3,2.1,2.2,3.5,2.9
		c4.5,2.1,9.8,0.1,11.9-4.4c0.7-1.4,0.9-3,0.8-4.5L16,9.4z"/>
	<path class="st1" d="M16.7,5.6l-3,1.1c0.5,1,0.8,2.2,0.7,3.3l3.1-1.1C17.6,7.7,17.2,6.6,16.7,5.6"/>
	<path class="st2" d="M5.7,8.7c0-0.2,0-0.4,0-0.6L2.5,9.2c0,0.2,0,0.4,0.1,0.6L5.7,8.7z"/>
	<path class="st2" d="M19.1,3.8c-0.1-0.2-0.2-0.3-0.3-0.5l-3.1,1.1c0.1,0.1,0.3,0.3,0.4,0.4L19.1,3.8z"/>
	<path class="st0" d="M2.9,14.2c0.2,0.4,0.5,0.7,0.8,1l3.4-1.3c-0.4-0.2-0.8-0.5-1.1-0.9L2.9,14.2z M19.1,8.3L16,9.4
		c0,0.4-0.1,0.9-0.3,1.3l3.4-1.3C19.1,9.1,19.1,8.7,19.1,8.3"/>
</g>
</svg>
